<svg fill="none" height="92" viewBox="0 0 92 92" width="92" xmlns="http://www.w3.org/2000/svg"><path d="m0 0h91.5618v91.5618h-91.5618z" fill="#eefaff"/><path d="m21 24.5838c0-1.9781 1.6561-3.5838 3.6975-3.5838h42.635c2.0422 0 3.6975 1.6057 3.6975 3.5838v42.863c0 1.9787-1.6553 3.5832-3.6975 3.5832h-42.635c-2.0412 0-3.6975-1.6043-3.6975-3.5826v-42.8642z" fill="#069"/><path d="m36.2032 62.8686v-22.5236h-7.4865v22.5236h7.4873zm-3.7417-25.5983c2.6102 0 4.2352-1.7296 4.2352-3.891-.0489-2.2107-1.625-3.892-4.1856-3.892-2.5622 0-4.2357 1.6813-4.2357 3.8918 0 2.1614 1.6244 3.891 4.137 3.891h.0485zm7.8856 25.5983h7.4859v-12.5768c0-.6723.0489-1.3463.2466-1.8265.541-1.3455 1.7728-2.7384 3.8414-2.7384 2.7083 0 3.7923 2.0653 3.7923 5.0935v12.0482h7.4858v-12.9143c0-6.918-3.6929-10.1374-8.6183-10.1374-4.0382 0-5.8117 2.2571-6.797 3.7943h.0498v-3.2654h-7.4861c.0977 2.113-.0006 22.5236-.0006 22.5236z" fill="#fff"/></svg>